<?xml version="1.0" encoding="utf-8"?>
<!-- Generator: Adobe Illustrator 22.0.0, SVG Export Plug-In . SVG Version: 6.00 Build 0)  -->
<svg version="1.1" id="Layer_1" xmlns="http://www.w3.org/2000/svg" xmlns:xlink="http://www.w3.org/1999/xlink" x="0px" y="0px"
	 viewBox="0 0 172 172" style="enable-background:new 0 0 172 172;" xml:space="preserve">
<style type="text/css">
	.st0{fill-rule:evenodd;clip-rule:evenodd;fill:#FFFFFF;stroke:#FFFFFF;stroke-miterlimit:10;}
	.st1{fill-rule:evenodd;clip-rule:evenodd;fill:none;stroke:#FFFFFF;stroke-width:2;stroke-linecap:round;stroke-miterlimit:3;}
	.st2{fill-rule:evenodd;clip-rule:evenodd;fill:none;stroke:#FFFFFF;stroke-width:7;stroke-linecap:round;stroke-miterlimit:3;}
</style>
<g>
	<path class="st0" d="M21.7,99.9C20.6,95,20,89.8,20,84.5c0-18.2,6.4-33.8,19.3-46.7C52.2,24.9,67.8,18.5,86,18.5c0.8,0,1.7,0,2.5,0
		c17.2,0.6,31.9,7,44.1,19.3C145.5,50.6,152,66.2,152,84.5c0,4.8-0.4,9.3-1.3,13.8c-1.5-0.2-3.1-0.3-4.7-0.3
		c-7.5,0.1-13.9,2.6-19.3,7.5c-3-1-6.1-1.5-9.5-1.5c-3.7,0.1-7.2,0.7-10.4,1.8c-5.2-4.7-11.3-7.1-18.4-7.3c-0.4,0-0.8,0-1.3,0
		c-7.5,0.1-13.9,2.6-19.4,7.5c-3-1-6.1-1.4-9.5-1.4c-3.7,0-7.1,0.6-10.3,1.8c-5.5-4.9-12.1-7.3-19.8-7.2
		C26.1,99.2,23.8,99.4,21.7,99.9z"/>
	<path class="st1" d="M21.7,99.9c2.1-0.5,4.4-0.8,6.7-0.8c7.6-0.1,14.2,2.3,19.8,7.2c3.2-1.1,6.6-1.7,10.3-1.8
		c3.3-0.1,6.5,0.4,9.5,1.4c5.4-4.9,11.9-7.4,19.4-7.5c0.4,0,0.8,0,1.3,0c7.1,0.2,13.2,2.6,18.4,7.3c3.2-1.2,6.7-1.8,10.4-1.8
		c3.3,0,6.5,0.5,9.5,1.5c5.4-4.9,11.8-7.4,19.3-7.5c1.6,0,3.2,0.1,4.7,0.3 M149,104.8c-1-0.1-2-0.1-3-0.1c-4.8,0.1-9,1.4-12.6,3.9
		c1.6,1.1,3.2,2.4,4.6,3.9c0.5,0.4,0.9,0.8,1.3,1.3c2-1.1,4.3-1.7,6.8-1.8 M139.4,113.8c1.3,1.4,2.5,3,3.5,4.5 M106.9,105.8
		c-2.3,0.9-4.4,2.1-6.3,3.5c-1.4,1-2.8,2.1-4,3.4c-0.5,0.6-0.9,1.1-1.4,1.6c-1.9,2.2-3.5,4.6-4.5,7.2c2.4,0.2,4.6,0.7,6.8,1.5
		c0.8-1.5,1.8-2.9,3-4.3c0.3-0.4,0.6-0.8,1-1.2c1.3-1.3,2.7-2.5,4.2-3.4c2-1.3,4.1-2.2,6.3-2.8c1.7-0.4,3.5-0.6,5.5-0.6
		c1.5,0,3,0.1,4.5,0.4c2.4,0.4,4.6,1.2,6.6,2.4c1.8,1,3.4,2.2,5,3.8c0.3,0.3,0.6,0.5,0.9,0.8c1.2,1.3,2.2,2.7,3,4.2
		c1.2-0.4,2.4-0.7,3.7-0.9 M97.3,123c2.3,0.8,4.5,1.9,6.6,3.4c0.7-1.3,1.5-2.5,2.6-3.6c0.8-0.7,1.6-1.4,2.4-2c1.9-1.3,4-2.2,6.3-2.5
		c0.7-0.1,1.5-0.2,2.3-0.2c0.2,0,0.4,0,0.7,0c2.4,0,4.6,0.5,6.6,1.5c1.4,0.7,2.7,1.7,4,2.9c0.8,0.8,1.5,1.7,2.1,2.6
		c2-1.2,4.1-2.2,6.3-2.9 M90.5,121.5c-0.7-0.1-1.4-0.1-2-0.1c-0.4,0-0.8,0-1.3,0c-0.6,0-1.2,0-1.8,0.1c-2.4,0.2-4.8,0.6-7,1.3
		c-2.2,0.7-4.3,1.6-6.3,2.8c-1.5,0.9-2.9,2-4.3,3.2c2.3,0.8,4.6,1.9,6.8,3.2c3.6-2.6,7.9-3.9,12.6-3.9c0.1,0,0.2,0,0.2,0
		c0.3,0,0.7,0,1,0.1h0c4.5,0.2,8.5,1.5,12,4c2-1.4,4.1-2.6,6.3-3.5c-0.9-0.9-1.9-1.7-2.9-2.4 M131,125c-1.5,0.9-2.9,2-4.3,3.2
		c2.1,0.7,4.2,1.6,6.1,2.8 M106.9,128.7c3.2-1.2,6.7-1.8,10.4-1.9c3.3,0,6.5,0.5,9.5,1.5 M126.7,105.4c2.4,0.7,4.6,1.8,6.8,3.1
		 M100.5,109.3c-3.5-2.5-7.5-3.9-12-4.1c-0.4,0-0.8,0-1.2,0c-4.8,0-9,1.3-12.6,4c1.6,1.1,3.2,2.3,4.6,3.8c0.4,0.5,0.9,0.9,1.3,1.3
		c2.1-1.1,4.4-1.7,7-1.7c0.3,0,0.6,0,0.9,0c2.4,0.1,4.6,0.7,6.6,1.8 M48.1,106.3c-2.3,1-4.4,2.2-6.4,3.6c-1.4,1-2.8,2.1-4.1,3.4
		c-0.5,0.5-0.9,1-1.4,1.5c-1.6,1.9-3,4-4,6.2c-0.2,0.4-0.4,0.8-0.6,1.2c0.2,0,0.4,0,0.6,0c2.2,0.2,4.3,0.6,6.3,1.3
		c0.8-1.5,1.8-3,2.9-4.3c0.4-0.4,0.7-0.8,1.1-1.2c1.3-1.4,2.7-2.5,4.1-3.4c2-1.3,4.1-2.2,6.4-2.8c1.8-0.4,3.6-0.6,5.5-0.6
		c1.5,0,3,0.1,4.4,0.3c2.4,0.4,4.6,1.2,6.7,2.4c1.7,0.9,3.4,2.2,4.9,3.8c0.3,0.3,0.5,0.5,0.8,0.8c1.2,1.3,2.2,2.7,3,4.2 M38.5,123.5
		c2.3,0.8,4.6,1.9,6.7,3.4c0.7-1.3,1.6-2.5,2.6-3.7c0.7-0.7,1.5-1.4,2.4-2c1.9-1.3,4-2.1,6.4-2.4c0.8-0.1,1.5-0.2,2.3-0.2
		c0.2,0,0.5,0,0.7,0c2.4,0,4.5,0.5,6.5,1.6c1.4,0.7,2.7,1.7,4,2.9c0.9,0.8,1.6,1.6,2.1,2.5 M45.2,126.9c1,0.7,2,1.5,3,2.3
		c3.2-1.2,6.6-1.8,10.3-1.8c3.3-0.1,6.5,0.4,9.5,1.3 M85.4,121.5c-1.2-2.6-2.8-5-4.9-7.2 M74.6,109.2c-2.2-1.3-4.4-2.4-6.8-3.2
		 M88.6,150.4c0.9-4.9,3.1-9.3,6.5-13.2c-2-1.1-4.2-1.7-6.6-1.8c-0.3,0-0.6,0-0.9,0c-2.6,0-4.9,0.6-7,1.8c3.6,3.9,5.9,8.3,6.9,13.3
		 M46.6,137.5c2-1.2,4.1-2.2,6.4-2.8c1.8-0.4,3.6-0.6,5.5-0.6c1.5,0,3,0.1,4.4,0.3c2.4,0.4,4.6,1.2,6.7,2.3c1.7,1,3.4,2.2,4.9,3.8
		c0.3,0.3,0.5,0.6,0.8,0.9c2.4,2.6,4.1,5.6,5.1,8.8 M74.6,132c1.6,1.1,3.2,2.3,4.6,3.8c0.4,0.5,0.9,0.9,1.3,1.4 M53.8,142.3
		c0.9-0.3,1.8-0.5,2.7-0.6c0.8-0.1,1.5-0.2,2.3-0.2c0.2,0,0.5,0,0.7,0c2.4,0,4.5,0.5,6.5,1.6c1.4,0.7,2.7,1.7,4,2.9
		c0.9,0.8,1.7,1.7,2.3,2.7c0.1,0.2,0.2,0.3,0.3,0.5 M95.7,149.8c0.9-3,2.4-5.8,4.6-8.3c0.3-0.4,0.6-0.8,1-1.2
		c1.3-1.3,2.7-2.5,4.2-3.4c2-1.2,4.1-2.2,6.3-2.8c1.7-0.4,3.5-0.6,5.5-0.7c1.5,0,3,0.2,4.5,0.5c2,0.3,4,1,5.8,1.8 M104.7,148
		c0.5-0.8,1.2-1.6,1.9-2.4c0.8-0.7,1.6-1.4,2.4-2c1.9-1.3,4-2.2,6.3-2.5c0.7-0.1,1.5-0.2,2.3-0.1c0.2,0,0.4,0,0.7,0
		c0.6,0,1.3,0,1.9,0.1 M95.1,137.2c0.5-0.5,0.9-1.1,1.4-1.6c1.3-1.3,2.6-2.4,4-3.4 M41.8,109.9c-3.9-2.8-8.3-4.2-13.2-4.1
		c-1.7,0-3.4,0.2-5,0.6 M26.4,113.3c0.8-0.1,1.6-0.2,2.4-0.2c2.8,0,5.3,0.6,7.5,1.8 M41.3,133c0.1-0.1,0.3-0.2,0.4-0.3
		c-0.7-0.5-1.4-1-2.2-1.3 M41.8,132.8c2-1.4,4.1-2.6,6.4-3.5"/>
	<path class="st2" d="M141.5,141.5c-15.3,15.3-33.8,23-55.5,23c-21.7,0-40.2-7.7-55.5-23c-15.3-15.3-23-33.8-23-55.5
		c0-21.7,7.7-40.2,23-55.5c15.3-15.3,33.8-23,55.5-23c21.7,0,40.2,7.7,55.5,23c15.3,15.3,23,33.8,23,55.5
		C164.5,107.7,156.8,126.2,141.5,141.5z"/>
</g>
</svg>
